<svg xmlns="http://www.w3.org/2000/svg" version="1.1" xmlns:xlink="http://www.w3.org/1999/xlink" xmlns:svgjs="http://svgjs.com/svgjs" width="960" height="1080" preserveAspectRatio="none" viewBox="0 0 960 1080"><g mask="url(&quot;#SvgjsMask1088&quot;)" fill="none"><rect width="960" height="1080" x="0" y="0" fill="rgba(41, 52, 98, 1)"></rect><path d="M597.27 1002.95a67.75 67.75 0 1 0-87.36 103.57z" fill="#e73635"></path><path d="M144.91 851.15L158.96 851.15L158.96 870.66L144.91 870.66z" stroke="rgba(10, 190, 240, 1)"></path><path d="M327.55 22.81L381.14 22.81L381.14 73.72L327.55 73.72z" fill="rgba(241, 239, 1, 1)"></path><path d="M876.43 668.59L967.24 668.59L967.24 759.4L876.43 759.4z" fill="rgba(17, 242, 26, 1)"></path><path d="M577.87 962.26L634.07 962.26L634.07 1002.16L577.87 1002.16z" stroke="rgba(236, 138, 21, 1)"></path><path d="M670.35 366.81L734.05 366.81L734.05 403.62L670.35 403.62z" stroke="rgba(241, 239, 1, 1)"></path><path d="M249.64 870.93L333.47 870.93L333.47 954.76L249.64 954.76z" fill="rgba(241, 239, 1, 1)"></path><path d="M60.45 1056.83L109.76 1056.83L109.76 1106.14L60.45 1106.14z" fill="rgba(234, 43, 82, 1)"></path><path d="M25.64 738.03 a79.7 79.7 0 1 0 159.4 0 a79.7 79.7 0 1 0 -159.4 0z" fill="rgba(10, 190, 240, 1)"></path><path d="M931.76 56.79 a13.53 13.53 0 1 0 27.06 0 a13.53 13.53 0 1 0 -27.06 0z" fill="rgba(236, 138, 21, 1)"></path><path d="M34.47 639.36a91.19 91.19 0 1 0 118.32-138.8z" stroke="rgba(241, 239, 1, 1)"></path><path d="M485.27 860.09L488.71 860.09L488.71 865.39L485.27 865.39z" stroke="rgba(10, 190, 240, 1)"></path><path d="M-8.19 359.1a67.13 67.13 0 1 0 97.61 92.19z" stroke="rgba(17, 242, 26, 1)"></path><path d="M275.14 911.99L311.13 911.99L311.13 995.01L275.14 995.01z" fill="rgba(234, 43, 82, 1)"></path><path d="M845 581.93a79.5 79.5 0 1 0-47.97-151.6z" fill="rgba(10, 190, 240, 1)"></path></g><defs><mask id="SvgjsMask1088"><rect width="960" height="1080" fill="#ffffff"></rect></mask></defs></svg>