<?xml version="1.0" standalone="no"?><svg xmlns="http://www.w3.org/2000/svg" viewBox="0 0 1440 320"><path fill="#ffffff" fill-opacity="1" d="M0,96L18.5,101.3C36.9,107,74,117,111,117.3C147.7,117,185,107,222,117.3C258.5,128,295,160,332,197.3C369.2,235,406,277,443,266.7C480,256,517,192,554,170.7C590.8,149,628,171,665,170.7C701.5,171,738,149,775,160C812.3,171,849,213,886,213.3C923.1,213,960,171,997,144C1033.8,117,1071,107,1108,106.7C1144.6,107,1182,117,1218,138.7C1255.4,160,1292,192,1329,192C1366.2,192,1403,160,1422,144L1440,128L1440,0L1421.5,0C1403.1,0,1366,0,1329,0C1292.3,0,1255,0,1218,0C1181.5,0,1145,0,1108,0C1070.8,0,1034,0,997,0C960,0,923,0,886,0C849.2,0,812,0,775,0C738.5,0,702,0,665,0C627.7,0,591,0,554,0C516.9,0,480,0,443,0C406.2,0,369,0,332,0C295.4,0,258,0,222,0C184.6,0,148,0,111,0C73.8,0,37,0,18,0L0,0Z"></path></svg>