<?xml version="1.0" encoding="utf-8"?><svg xml:space="preserve" viewBox="0 0 100 100" y="0" x="0" xmlns="http://www.w3.org/2000/svg" id="圖層_1" version="1.1" width="200px" height="200px" xmlns:xlink="http://www.w3.org/1999/xlink" style="width:100%;height:100%;background-size:initial;background-repeat-y:initial;background-repeat-x:initial;background-position-y:initial;background-position-x:initial;background-origin:initial;background-color:initial;background-clip:initial;background-attachment:initial;animation-play-state:paused" ><g class="ldl-scale" style="transform-origin:50% 50%;transform:rotate(0deg) scale(0.8, 0.8);animation-play-state:paused" ><path stroke-miterlimit="10" stroke="#333" stroke-linecap="round" stroke-width="3" fill="none" d="M49.161 78.087c2.608-1.48 5.904-1.68 8.671-.525 3.566 1.488 6.168 5.016 9.954 5.788 4.36.889 8.589-2.284 11.046-5.994 4.352-6.57 5.098-14.967 4.03-22.775-.355-2.595-.933-5.254-2.48-7.367-1.547-2.113-4.285-3.545-6.812-2.859s-4.184 3.996-2.691 6.148" style="stroke:rgb(162, 180, 188);animation-play-state:paused" ></path>
<path fill="#333" d="M46.556 23.089l-8.518 2.632a1.245 1.245 0 0 1-1.611-1.144l-.487-13.324c-.044-1.19 1.654-1.715 2.446-.756l8.763 10.611c.563.683.254 1.72-.593 1.981z" style="fill:rgb(162, 180, 188);animation-play-state:paused" ></path>
<path fill="#333" d="M51.775 23.089l8.518 2.632a1.244 1.244 0 0 0 1.611-1.144l.487-13.325c.044-1.19-1.654-1.715-2.446-.756l-8.763 10.611a1.246 1.246 0 0 0 .593 1.982z" style="fill:rgb(162, 180, 188);animation-play-state:paused" ></path>
<path fill="#333" d="M66.324 70.407C66.324 90.213 58.642 90 49.166 90s-17.158.213-17.158-19.593c0-15.527 7.682-32.532 17.158-32.532S66.324 54.88 66.324 70.407z" style="fill:rgb(162, 180, 188);animation-play-state:paused" ></path>
<ellipse fill="#333" ry="12.939" rx="14.418" cy="29.372" cx="49.166" style="fill:rgb(162, 180, 188);animation-play-state:paused" ></ellipse>
<path opacity=".5" d="M55.887 40.815c4.575-2.169 7.697-6.476 7.697-11.443 0-2.156-.596-4.185-1.636-5.973l.444-12.146c.044-1.19-1.654-1.715-2.446-.756l-5.62 6.805a16.054 16.054 0 0 0-1.208-.363l-.171 4.795a12.351 12.351 0 0 1 1.636 6.123c0 5.091-3.122 9.505-7.697 11.729 6.136 5.668 10.437 18.423 10.437 30.332 0 16.976-5.373 19.602-12.674 20.008 1.441.078 2.953.074 4.517.074 9.476 0 17.158.213 17.158-19.593 0-11.618-4.302-24.062-10.437-29.592z" style="fill:rgb(14, 21, 30);animation-play-state:paused" ></path>
<ellipse fill="#fff" ry="3.339" rx="3.93" cy="27.882" cx="43.501" style="fill:rgb(240, 245, 246);animation-play-state:paused" ></ellipse>
<ellipse ry="3.287" rx="1.669" cy="27.83" cx="43.501" style="fill:rgb(14, 21, 30);animation-play-state:paused" ></ellipse>
<ellipse fill="#fff" ry="3.339" rx="3.93" cy="27.882" cx="54.83" style="fill:rgb(240, 245, 246);animation-play-state:paused" ></ellipse>
<ellipse ry="3.287" rx="1.669" cy="27.83" cx="54.83" style="fill:rgb(14, 21, 30);animation-play-state:paused" ></ellipse>
<path d="M49.161 35.563l-2.536 2.104" stroke-miterlimit="10" stroke-linecap="round" stroke="#000" fill="none" style="stroke:rgb(14, 21, 30);animation-play-state:paused" ></path>
<path d="M49.161 35.563l2.536 2.104" stroke-miterlimit="10" stroke-linecap="round" stroke="#000" fill="none" style="stroke:rgb(14, 21, 30);animation-play-state:paused" ></path>
<path d="M49.161 35.563v-2.146" stroke-miterlimit="10" stroke-linecap="round" stroke="#000" fill="none" style="stroke:rgb(14, 21, 30);animation-play-state:paused" ></path>
<ellipse fill="#e15b64" ry="1.25" rx="2" cy="32.918" cx="49.166" style="fill:rgb(14, 21, 30);animation-play-state:paused" ></ellipse>
<metadata xmlns:d="https://loading.io/stock/" style="animation-play-state:paused" ><d:name style="animation-play-state:paused" >cat</d:name>


<d:tags style="animation-play-state:paused" >cat,kitty,puss,feline,felid,felidae,animal,blackcat,witch</d:tags>


<d:license style="animation-play-state:paused" >by</d:license>


<d:slug style="animation-play-state:paused" >i4wvsp</d:slug></metadata></g><!-- generated by https://loading.io/ --></svg>