<svg xmlns="http://www.w3.org/2000/svg" version="1.1" xmlns:xlink="http://www.w3.org/1999/xlink" xmlns:svgjs="http://svgjs.com/svgjs" width="960" height="1080" preserveAspectRatio="none" viewBox="0 0 960 1080"><g mask="url(&quot;#SvgjsMask1170&quot;)" fill="none"><rect width="960" height="1080" x="0" y="0" fill="rgba(14, 42, 71, 1)"></rect><g transform="translate(9.6, -10.8)" stroke-linecap="round" stroke="url(#SvgjsLinearGradient1171)"><path d="M240 476.45 L240 603.54" stroke-width="15"></path><path d="M260 412.34 L260 562.3399999999999" stroke-width="15"></path><path d="M260 584.8399999999999 L260 614.8399999999999" stroke-width="15"></path><path d="M260 637.3399999999999 L260 667.66" stroke-width="15"></path><path d="M280 393.34 L280 588.3399999999999" stroke-width="15"></path><path d="M280 610.8399999999999 L280 640.8399999999999" stroke-width="15"></path><path d="M280 663.3399999999999 L280 686.66" stroke-width="15"></path><path d="M300 332.01 L300 497.01" stroke-width="15"></path><path d="M300 519.51 L300 534.51" stroke-width="15"></path><path d="M300 557.01 L300 747.99" stroke-width="15"></path><path d="M320 410.2 L320 575.2" stroke-width="15"></path><path d="M320 597.7 L320 612.7" stroke-width="15"></path><path d="M320 635.2 L320 669.8" stroke-width="15"></path><path d="M340 350.69 L340 500.69" stroke-width="15"></path><path d="M340 523.19 L340 583.19" stroke-width="15"></path><path d="M340 605.69 L340 729.31" stroke-width="15"></path><path d="M360 350.66 L360 545.6600000000001" stroke-width="15"></path><path d="M360 568.1600000000001 L360 643.1600000000001" stroke-width="15"></path><path d="M360 665.6600000000001 L360 729.34" stroke-width="15"></path><path d="M380 293.04 L380 786.96" stroke-width="15"></path><path d="M400 399.85 L400 519.85" stroke-width="15"></path><path d="M400 542.35 L400 557.35" stroke-width="15"></path><path d="M400 579.85 L400 680.15" stroke-width="15"></path><path d="M420 435.99 L420 644.01" stroke-width="15"></path><path d="M440 423.86 L440 603.86" stroke-width="15"></path><path d="M440 626.36 L440 656.14" stroke-width="15"></path><path d="M460 432.93 L460 492.93" stroke-width="15"></path><path d="M460 515.4300000000001 L460 647.08" stroke-width="15"></path><path d="M480 328.69 L480 751.31" stroke-width="15"></path><path d="M500 269.05 L500 629.05" stroke-width="15"></path><path d="M500 651.55 L500 681.55" stroke-width="15"></path><path d="M500 704.05 L500 810.95" stroke-width="15"></path><path d="M520 382.38 L520 547.38" stroke-width="15"></path><path d="M520 569.88 L520 697.62" stroke-width="15"></path><path d="M540 460.77 L540 619.23" stroke-width="15"></path><path d="M560 420 L560 450" stroke-width="15"></path><path d="M560 472.5 L560 592.5" stroke-width="15"></path><path d="M560 615 L560 660" stroke-width="15"></path><path d="M580 449.21 L580 539.21" stroke-width="15"></path><path d="M580 561.71 L580 591.71" stroke-width="15"></path><path d="M580 614.21 L580 630.79" stroke-width="15"></path><path d="M600 353.26 L600 503.26" stroke-width="15"></path><path d="M600 525.76 L600 645.76" stroke-width="15"></path><path d="M600 668.26 L600 726.74" stroke-width="15"></path><path d="M620 305.22 L620 774.78" stroke-width="15"></path><path d="M640 422.88 L640 467.88" stroke-width="15"></path><path d="M640 490.38 L640 550.38" stroke-width="15"></path><path d="M640 572.88 L640 657.12" stroke-width="15"></path><path d="M660 306.2 L660 501.2" stroke-width="15"></path><path d="M660 523.7 L660 773.8" stroke-width="15"></path><path d="M680 324.1 L680 519.1" stroke-width="15"></path><path d="M680 541.6 L680 691.6" stroke-width="15"></path><path d="M680 714.1 L680 755.9" stroke-width="15"></path><path d="M700 475.26 L700 490.26" stroke-width="15"></path><path d="M700 512.76 L700 542.76" stroke-width="15"></path><path d="M700 565.26 L700 604.74" stroke-width="15"></path><path d="M720 345.06 L720 510.06" stroke-width="15"></path><path d="M720 532.56 L720 734.93" stroke-width="15"></path></g></g><defs><mask id="SvgjsMask1170"><rect width="960" height="1080" fill="#ffffff"></rect></mask><linearGradient x1="220.8" y1="540" x2="739.2" y2="540" gradientUnits="userSpaceOnUse" id="SvgjsLinearGradient1171"><stop stop-color="#3a7cc3" offset="0"></stop><stop stop-color="rgba(221, 17, 51, 1)" offset="1"></stop></linearGradient></defs></svg>