<?xml version="1.0" standalone="no"?><svg xmlns="http://www.w3.org/2000/svg" viewBox="0 0 1440 320"><path fill="#b74cff" fill-opacity="1" d="M0,256L30,261.3C60,267,120,277,180,272C240,267,300,245,360,240C420,235,480,245,540,256C600,267,660,277,720,240C780,203,840,117,900,117.3C960,117,1020,203,1080,213.3C1140,224,1200,160,1260,138.7C1320,117,1380,139,1410,149.3L1440,160L1440,320L1410,320C1380,320,1320,320,1260,320C1200,320,1140,320,1080,320C1020,320,960,320,900,320C840,320,780,320,720,320C660,320,600,320,540,320C480,320,420,320,360,320C300,320,240,320,180,320C120,320,60,320,30,320L0,320Z"></path></svg>