<?xml version="1.0" standalone="no"?><svg xmlns="http://www.w3.org/2000/svg" viewBox="0 0 1440 320"><path fill="#a6a1ff" fill-opacity="10" d="M0,288L40,266.7C80,245,160,203,240,197.3C320,192,400,224,480,229.3C560,235,640,213,720,186.7C800,160,880,128,960,144C1040,160,1120,224,1200,213.3C1280,203,1360,117,1400,74.7L1440,32L1440,320L1400,320C1360,320,1280,320,1200,320C1120,320,1040,320,960,320C880,320,800,320,720,320C640,320,560,320,480,320C400,320,320,320,240,320C160,320,80,320,40,320L0,320Z"></path></svg>